<svg width="12" height="12" viewBox="0 0 12 12" fill="none" xmlns="http://www.w3.org/2000/svg">
<path d="M6.588 0.796411C6.8245 0.642007 7.1342 0.467272 7.46995 0.50527C7.89295 0.553137 8.2493 0.821803 8.43185 1.19707C8.57305 1.48735 8.53955 1.83042 8.49015 2.12446C8.43725 2.43924 8.3346 2.84747 8.20785 3.35147L7.9817 4.251C7.9271 4.468 7.89345 4.60336 7.87565 4.70743C7.85875 4.80612 7.8642 4.83562 7.86535 4.84157C7.87795 4.90462 7.90805 4.95689 7.9458 4.99311C7.9458 4.99311 7.95903 5.00733 8.0385 5.03761C8.12825 5.0718 8.2514 5.10741 8.4563 5.16592L8.7355 5.24563C9.093 5.34769 9.39565 5.43411 9.62595 5.52434C9.85505 5.61404 10.1073 5.74119 10.2713 5.97974C10.4865 6.29254 10.5526 6.68679 10.4578 7.05264C10.3862 7.32869 10.1989 7.53724 10.0157 7.70684C9.8315 7.87734 9.57825 8.07194 9.2772 8.30324L6.41201 10.5048C6.02209 10.8045 5.70277 11.0498 5.44595 11.2138C5.20976 11.3646 4.9013 11.534 4.56786 11.4939C4.14698 11.4433 3.79354 11.1741 3.61276 10.7999C3.4732 10.511 3.50593 10.1713 3.55482 9.87969C3.60703 9.56829 3.70843 9.16509 3.83345 8.66794L4.03626 7.86134C4.09083 7.64434 4.12451 7.50899 4.14231 7.40489C4.15919 7.30619 4.15376 7.27669 4.15258 7.27074C4.14 7.20769 4.10991 7.15544 4.07216 7.11919L3.97944 7.07469L3.56163 6.94639L3.25377 6.85849C2.90019 6.75754 2.60044 6.67199 2.37209 6.58249C2.14452 6.49334 1.89438 6.36704 1.73064 6.13039C1.51554 5.81949 1.44804 5.42743 1.54018 5.06259C1.60957 4.78783 1.79319 4.5791 1.9736 4.40883C2.15467 4.23795 2.40371 4.04273 2.69943 3.81092L5.6163 1.52433C6.00893 1.21653 6.32996 0.964864 6.588 0.796411Z" fill="url(#paint0_linear_301_411)"/>
<defs>
<linearGradient id="paint0_linear_301_411" x1="1.09091" y1="1.02381" x2="7.97406" y2="9.98333" gradientUnits="userSpaceOnUse">
<stop stop-color="#F1B15E"/>
<stop offset="1" stop-color="#B47E2C"/>
</linearGradient>
</defs>
</svg>
